<svg id="visual" viewBox="0 0 900 600" width="900" height="600" xmlns="http://www.w3.org/2000/svg" xmlns:xlink="http://www.w3.org/1999/xlink" version="1.1"><rect x="0" y="0" width="900" height="600" fill="#F5F5F5"></rect><path d="M0 219L21.5 211.5C43 204 86 189 128.8 189C171.7 189 214.3 204 257.2 203.7C300 203.3 343 187.7 385.8 178.7C428.7 169.7 471.3 167.3 514.2 177.7C557 188 600 211 642.8 216.3C685.7 221.7 728.3 209.3 771.2 211C814 212.7 857 228.3 878.5 236.2L900 244L900 0L878.5 0C857 0 814 0 771.2 0C728.3 0 685.7 0 642.8 0C600 0 557 0 514.2 0C471.3 0 428.7 0 385.8 0C343 0 300 0 257.2 0C214.3 0 171.7 0 128.8 0C86 0 43 0 21.5 0L0 0Z" fill="#006be5"></path><path d="M0 153L21.5 151.8C43 150.7 86 148.3 128.8 151.2C171.7 154 214.3 162 257.2 161.7C300 161.3 343 152.7 385.8 158.2C428.7 163.7 471.3 183.3 514.2 191.7C557 200 600 197 642.8 188.7C685.7 180.3 728.3 166.7 771.2 160C814 153.3 857 153.7 878.5 153.8L900 154L900 0L878.5 0C857 0 814 0 771.2 0C728.3 0 685.7 0 642.8 0C600 0 557 0 514.2 0C471.3 0 428.7 0 385.8 0C343 0 300 0 257.2 0C214.3 0 171.7 0 128.8 0C86 0 43 0 21.5 0L0 0Z" fill="#0060cd"></path><path d="M0 127L21.5 120.5C43 114 86 101 128.8 103.2C171.7 105.3 214.3 122.7 257.2 128.7C300 134.7 343 129.3 385.8 123.3C428.7 117.3 471.3 110.7 514.2 110C557 109.3 600 114.7 642.8 120C685.7 125.3 728.3 130.7 771.2 128.7C814 126.7 857 117.3 878.5 112.7L900 108L900 0L878.5 0C857 0 814 0 771.2 0C728.3 0 685.7 0 642.8 0C600 0 557 0 514.2 0C471.3 0 428.7 0 385.8 0C343 0 300 0 257.2 0C214.3 0 171.7 0 128.8 0C86 0 43 0 21.5 0L0 0Z" fill="#0055b5"></path><path d="M0 116L21.5 113C43 110 86 104 128.8 99.2C171.7 94.3 214.3 90.7 257.2 84.8C300 79 343 71 385.8 69.2C428.7 67.3 471.3 71.7 514.2 80C557 88.3 600 100.7 642.8 106.7C685.7 112.7 728.3 112.3 771.2 112C814 111.7 857 111.3 878.5 111.2L900 111L900 0L878.5 0C857 0 814 0 771.2 0C728.3 0 685.7 0 642.8 0C600 0 557 0 514.2 0C471.3 0 428.7 0 385.8 0C343 0 300 0 257.2 0C214.3 0 171.7 0 128.8 0C86 0 43 0 21.5 0L0 0Z" fill="#004a9e"></path><path d="M0 58L21.5 59.3C43 60.7 86 63.3 128.8 63.3C171.7 63.3 214.3 60.7 257.2 55.7C300 50.7 343 43.3 385.8 42.8C428.7 42.3 471.3 48.7 514.2 54.5C557 60.3 600 65.7 642.8 60.8C685.7 56 728.3 41 771.2 35.3C814 29.7 857 33.3 878.5 35.2L900 37L900 0L878.5 0C857 0 814 0 771.2 0C728.3 0 685.7 0 642.8 0C600 0 557 0 514.2 0C471.3 0 428.7 0 385.8 0C343 0 300 0 257.2 0C214.3 0 171.7 0 128.8 0C86 0 43 0 21.5 0L0 0Z" fill="#003f88"></path></svg>