<svg id="visual" viewBox="0 0 900 600" width="900" height="600" xmlns="http://www.w3.org/2000/svg" xmlns:xlink="http://www.w3.org/1999/xlink" version="1.1"><rect x="0" y="0" width="900" height="600" fill="#F0F0F0"></rect><path d="M0 250L21.5 245.8C43 241.7 86 233.3 128.8 235.8C171.7 238.3 214.3 251.7 257.2 251.2C300 250.7 343 236.3 385.8 238.8C428.7 241.3 471.3 260.7 514.2 264.3C557 268 600 256 642.8 253.2C685.7 250.3 728.3 256.7 771.2 260.3C814 264 857 265 878.5 265.5L900 266L900 0L878.5 0C857 0 814 0 771.2 0C728.3 0 685.7 0 642.8 0C600 0 557 0 514.2 0C471.3 0 428.7 0 385.8 0C343 0 300 0 257.2 0C214.3 0 171.7 0 128.8 0C86 0 43 0 21.5 0L0 0Z" fill="#a53e37"></path><path d="M0 178L21.5 188.3C43 198.7 86 219.3 128.8 222.8C171.7 226.3 214.3 212.7 257.2 210.8C300 209 343 219 385.8 215.5C428.7 212 471.3 195 514.2 192.5C557 190 600 202 642.8 209.3C685.7 216.7 728.3 219.3 771.2 211.2C814 203 857 184 878.5 174.5L900 165L900 0L878.5 0C857 0 814 0 771.2 0C728.3 0 685.7 0 642.8 0C600 0 557 0 514.2 0C471.3 0 428.7 0 385.8 0C343 0 300 0 257.2 0C214.3 0 171.7 0 128.8 0C86 0 43 0 21.5 0L0 0Z" fill="#b73931"></path><path d="M0 181L21.5 176C43 171 86 161 128.8 154.7C171.7 148.3 214.3 145.7 257.2 143.8C300 142 343 141 385.8 146.2C428.7 151.3 471.3 162.7 514.2 171.8C557 181 600 188 642.8 181.2C685.7 174.3 728.3 153.7 771.2 144.3C814 135 857 137 878.5 138L900 139L900 0L878.5 0C857 0 814 0 771.2 0C728.3 0 685.7 0 642.8 0C600 0 557 0 514.2 0C471.3 0 428.7 0 385.8 0C343 0 300 0 257.2 0C214.3 0 171.7 0 128.8 0C86 0 43 0 21.5 0L0 0Z" fill="#c8342a"></path><path d="M0 122L21.5 124.2C43 126.3 86 130.7 128.8 131.7C171.7 132.7 214.3 130.3 257.2 133.2C300 136 343 144 385.8 147.8C428.7 151.7 471.3 151.3 514.2 147.3C557 143.3 600 135.7 642.8 135.2C685.7 134.7 728.3 141.3 771.2 144.2C814 147 857 146 878.5 145.5L900 145L900 0L878.5 0C857 0 814 0 771.2 0C728.3 0 685.7 0 642.8 0C600 0 557 0 514.2 0C471.3 0 428.7 0 385.8 0C343 0 300 0 257.2 0C214.3 0 171.7 0 128.8 0C86 0 43 0 21.5 0L0 0Z" fill="#d92c21"></path><path d="M0 74L21.5 73.8C43 73.7 86 73.3 128.8 76.8C171.7 80.3 214.3 87.7 257.2 92.5C300 97.3 343 99.7 385.8 99.3C428.7 99 471.3 96 514.2 95.3C557 94.7 600 96.3 642.8 95.5C685.7 94.7 728.3 91.3 771.2 92.2C814 93 857 98 878.5 100.5L900 103L900 0L878.5 0C857 0 814 0 771.2 0C728.3 0 685.7 0 642.8 0C600 0 557 0 514.2 0C471.3 0 428.7 0 385.8 0C343 0 300 0 257.2 0C214.3 0 171.7 0 128.8 0C86 0 43 0 21.5 0L0 0Z" fill="#ea2115"></path><path d="M0 62L21.5 58.2C43 54.3 86 46.7 128.8 43.3C171.7 40 214.3 41 257.2 44.2C300 47.3 343 52.7 385.8 56.2C428.7 59.7 471.3 61.3 514.2 59.8C557 58.3 600 53.7 642.8 52.5C685.7 51.3 728.3 53.7 771.2 55C814 56.3 857 56.7 878.5 56.8L900 57L900 0L878.5 0C857 0 814 0 771.2 0C728.3 0 685.7 0 642.8 0C600 0 557 0 514.2 0C471.3 0 428.7 0 385.8 0C343 0 300 0 257.2 0C214.3 0 171.7 0 128.8 0C86 0 43 0 21.5 0L0 0Z" fill="#fa0f00"></path></svg>